<svg width="36" height="22" viewBox="0 0 36 22" fill="none" xmlns="http://www.w3.org/2000/svg">
<path fill-rule="evenodd" clip-rule="evenodd" d="M5.55556 2C5.55556 1.0335 6.33906 0.25 7.30556 0.25H14.1944C15.1609 0.25 15.9444 1.0335 15.9444 2V5.5C15.9444 5.91421 15.6087 6.25 15.1944 6.25C14.7802 6.25 14.4444 5.91421 14.4444 5.5V2C14.4444 1.86193 14.3325 1.75 14.1944 1.75H7.30556C7.16748 1.75 7.05556 1.86193 7.05556 2V5.55556C7.05556 6.52205 6.27205 7.30556 5.30556 7.30556H1.75C1.61193 7.30556 1.5 7.41749 1.5 7.55556V14.4444C1.5 14.5825 1.61193 14.6944 1.75 14.6944H5.30556C6.27205 14.6944 7.05556 15.4779 7.05556 16.4444V20C7.05556 20.1381 7.16748 20.25 7.30556 20.25H14.1944C14.3325 20.25 14.4444 20.1381 14.4444 20V16.5C14.4444 16.0858 14.7802 15.75 15.1944 15.75C15.6087 15.75 15.9444 16.0858 15.9444 16.5V20C15.9444 20.9665 15.1609 21.75 14.1944 21.75H7.30556C6.33906 21.75 5.55556 20.9665 5.55556 20V16.4444C5.55556 16.3064 5.44363 16.1944 5.30556 16.1944H1.75C0.783501 16.1944 0 15.4109 0 14.4444V7.55556C0 6.58906 0.783501 5.80556 1.75 5.80556H5.30556C5.44363 5.80556 5.55556 5.69363 5.55556 5.55556V2Z" fill="#5DD820"/>
<path d="M7.7 14.59H9.12V12.1H10.3C11.81 12.1 12.73 11.28 12.73 9.82C12.73 8.44 11.91 7.73 10.24 7.73H7.7V14.59ZM9.12 11.06V8.8H10.07C10.9 8.8 11.25 9.02 11.25 9.88C11.25 10.67 10.92 11.06 10.05 11.06H9.12Z" fill="#003D00"/>
<path d="M13.6766 14.59H15.0966V11.89H16.0966L17.4566 14.59H19.0866L17.3866 11.58V11.53C18.1366 11.25 18.6066 10.72 18.6066 9.77C18.6066 8.4 17.7566 7.73 16.1366 7.73H13.6766V14.59ZM15.0866 10.96V8.78H15.9566C16.7966 8.78 17.1366 9.1 17.1366 9.84C17.1366 10.59 16.8066 10.96 15.9666 10.96H15.0866Z" fill="#003D00"/>
<path d="M19.898 14.59H21.328V7.73H19.898V14.59Z" fill="#00CF86"/>
<path d="M22.7684 14.59H23.9984V9.45H24.0284L25.6384 14.59H26.7484L28.3784 9.46H28.4084V14.59H29.8084V7.73H27.8684L26.3284 12.61H26.2984L24.7384 7.73H22.7684V14.59Z" fill="#003D00"/>
<path d="M31.2059 14.59H35.6759V13.5H32.6259V11.6H34.9559V10.54H32.6259V8.8H35.6059V7.73H31.2059V14.59Z" fill="#003D00"/>
</svg>
